<?xml version="1.0" encoding="utf-8"?>
<!-- Generator: Adobe Illustrator 22.0.1, SVG Export Plug-In . SVG Version: 6.00 Build 0)  -->
<svg version="1.1" id="Layer_1" xmlns="http://www.w3.org/2000/svg" xmlns:xlink="http://www.w3.org/1999/xlink" x="0px" y="0px"
	 viewBox="0 0 1036 358" style="enable-background:new 0 0 1036 358;" xml:space="preserve">
<style type="text/css">
	.st0{fill:#EC6B21;}
	.st1{fill:#FFFFFF;}
	.st2{fill:#E5007E;}
</style>
<g>
	<path class="st0" d="M21.6,0C9.7,0,0,9.7,0,21.6c0,11.9,9.7,21.6,21.6,21.6s21.6-9.7,21.6-21.6C43.1,9.7,33.4,0,21.6,0"/>
	<path class="st0" d="M251.6,0C239.7,0,230,9.7,230,21.6s9.7,21.6,21.5,21.6c11.9,0,21.5-9.7,21.5-21.6S263.4,0,251.6,0"/>
	<path class="st0" d="M174.9,43.1c11.9,0,21.6-9.7,21.6-21.6c0-11.9-9.7-21.6-21.6-21.6c-11.9,0-21.6,9.7-21.6,21.6
		C153.3,33.4,163,43.1,174.9,43.1"/>
	<path class="st0" d="M98.2,0C86.3,0,76.7,9.7,76.7,21.6c0,11.9,9.7,21.6,21.6,21.6s21.6-9.7,21.6-21.6C119.8,9.7,110.1,0,98.2,0"/>
	<path class="st0" d="M328.2,43.1c11.9,0,21.6-9.7,21.6-21.6c0-11.9-9.7-21.6-21.6-21.6c-11.9,0-21.6,9.7-21.6,21.6
		C306.7,33.5,316.3,43.1,328.2,43.1"/>
	<path class="st0" d="M21.6,152.9C9.7,152.9,0,162.6,0,174.5C0,186.4,9.7,196,21.6,196s21.6-9.7,21.6-21.6
		C43.1,162.6,33.4,152.9,21.6,152.9"/>
	<path class="st1" d="M328.2,152.9c-11.9,0-21.6,9.7-21.6,21.6c0,11.9,9.7,21.6,21.6,21.6c11.9,0,21.6-9.7,21.6-21.6
		C349.8,162.6,340.1,152.9,328.2,152.9"/>
	<path class="st0" d="M21.6,306.4C9.7,306.4,0,316.1,0,327.9c0,11.9,9.7,21.6,21.6,21.6s21.6-9.7,21.6-21.6
		C43.1,316.1,33.4,306.4,21.6,306.4"/>
	<path class="st0" d="M251.6,306.4c-11.9,0-21.5,9.7-21.5,21.5s9.7,21.6,21.5,21.6c11.9,0,21.5-9.7,21.5-21.6
		S263.4,306.4,251.6,306.4"/>
	<path class="st0" d="M174.9,306.4c-11.9,0-21.6,9.7-21.6,21.6c0,11.9,9.7,21.6,21.6,21.6c11.9,0,21.6-9.7,21.6-21.6
		C196.4,316.1,186.8,306.4,174.9,306.4"/>
	<path class="st0" d="M98.2,306.4c-11.9,0-21.6,9.7-21.6,21.6c0,11.9,9.7,21.6,21.6,21.6s21.6-9.7,21.6-21.6
		C119.8,316.1,110.1,306.4,98.2,306.4"/>
	<path class="st0" d="M328.2,306.4c-11.9,0-21.6,9.7-21.6,21.6c0,11.9,9.7,21.6,21.6,21.6c11.9,0,21.6-9.7,21.6-21.6
		C349.8,316.1,340.1,306.4,328.2,306.4"/>
	<path class="st0" d="M21.6,234C9.7,234,0,243.6,0,255.5c0,11.9,9.7,21.6,21.6,21.6s21.6-9.7,21.6-21.6
		C43.1,243.6,33.4,234,21.6,234"/>
	<path class="st0" d="M251.6,234c-11.9,0-21.5,9.7-21.5,21.5c0,11.9,9.7,21.6,21.5,21.6c11.9,0,21.5-9.7,21.5-21.6
		C273.1,243.6,263.4,234,251.6,234"/>
	<path class="st0" d="M98.2,234c-11.9,0-21.6,9.7-21.6,21.6c0,11.9,9.7,21.6,21.6,21.6s21.6-9.7,21.6-21.6
		C119.8,243.6,110.1,234,98.2,234"/>
	<path class="st1" d="M328.2,234c-11.9,0-21.6,9.7-21.6,21.6c0,11.9,9.7,21.6,21.6,21.6c11.9,0,21.6-9.7,21.6-21.6
		C349.8,243.6,340.1,234,328.2,234"/>
	<path class="st0" d="M21.6,79.5C9.7,79.5,0,89.1,0,101c0,11.9,9.7,21.6,21.6,21.6s21.6-9.7,21.6-21.6
		C43.1,89.1,33.4,79.5,21.6,79.5"/>
	<path class="st2" d="M328.2,79.5c-11.9,0-21.6,9.7-21.6,21.6c0,11.9,9.7,21.6,21.6,21.6c11.9,0,21.6-9.7,21.6-21.6
		C349.8,89.1,340.1,79.5,328.2,79.5"/>
	<path class="st0" d="M174.9,79.5c-11.9,0-21.6,9.7-21.6,21.6c0,11.9,9.7,21.6,21.6,21.6s21.6-9.7,21.6-21.6
		C196.5,89.1,186.8,79.5,174.9,79.5"/>
	<path class="st1" d="M271.7,94.2c-1.8-5.4-5.6-9.7-10.7-12.2c-5.1-2.5-10.8-2.9-16.2-1.1c-5.4,1.8-9.7,5.6-12.2,10.7l-57.7,116.2
		L117.2,91.6c-2.5-5.1-6.9-8.9-12.2-10.7c-5.4-1.8-11.1-1.4-16.2,1.1c-5.1,2.5-8.9,6.9-10.7,12.2c-1.8,5.4-1.4,11.1,1.1,16.2
		l76.7,154.5c3.7,7.4,11.1,12.1,19,12.1c7.9,0,15.3-4.8,19-12.1l76.7-154.5C273.1,105.4,273.5,99.6,271.7,94.2"/>
	<path class="st1" d="M1036,217.5c0,11.4-3.1,21.9-9.3,31.2c-6.2,9.3-15.3,16.6-27.2,21.9c-11.7,5.2-25.8,7.8-42,7.8
		c-16.1,0-31.4-2.5-45.7-7.5c-14.4-5-25.8-11.8-34.1-20c-3.8-3.8-5.7-8.4-5.7-13.6c0-6.9,2.9-12.5,8.6-16.8
		c11.5-8.5,21.8-7.1,30.7,1.8c4,4.4,10.1,8.3,18.3,11.7c8.2,3.4,17.1,5.1,26.5,5.1c12.3,0,21.9-2,28.5-6c6.1-3.7,8.9-8.1,8.9-14.1
		c0-5.8-2.8-10.4-8.9-14.4c-6.7-4.4-18.4-8.2-34.8-11.3c-46.3-8.9-69.8-28.7-69.8-58.7c0-12.3,3.7-22.8,11-31.4
		c7.1-8.4,16.6-14.7,28-18.9c11.3-4.1,23.4-6.1,36-6.1c15.5,0,29.5,2.5,41.9,7.6c12.5,5.1,22.5,12.3,29.9,21.3
		c3.6,4.4,5.4,9,5.4,13.7c0,5.2-2.5,9.9-7.5,14c-3.3,2.4-7.4,3.6-12.2,3.6c-7,0-13.4-2.6-19-7.7c-5.3-4.9-11-8.4-16.9-10.4
		c-6-2-13.5-3.1-22.2-3.1c-9.9,0-18,1.7-24.2,4.9c-5.5,2.9-8,6.5-8,11.4c0,3.7,0.9,6.7,2.7,9.1c1.8,2.5,5.8,5,11.4,7.3
		c6.2,2.5,15.4,5.1,27.3,7.6c25.7,5.2,44.3,12.6,55.3,22C1030.3,189.2,1036,202,1036,217.5 M819.4,178.4c0,12.2-2.7,23.3-8.1,33.1
		c-5.4,9.8-12.9,17.6-22.2,23.2c-9.3,5.6-19.8,8.5-31.3,8.5c-11.5,0-22-2.9-31.3-8.5c-9.3-5.6-16.7-13.4-22-23.2
		c-5.3-9.8-8-20.9-8-33.1c0-12.2,2.7-23.4,8-33.2c5.3-9.9,12.7-17.7,22-23.4c9.3-5.6,19.8-8.5,31.3-8.5c11.5,0,22,2.9,31.3,8.5
		c9.3,5.6,16.8,13.5,22.2,23.4C816.6,155,819.4,166.2,819.4,178.4 M808.4,91.2C793.2,82.5,776.2,78,757.8,78
		c-18.4,0-35.4,4.4-50.4,13.2c-15,8.8-27,20.9-35.8,36.1c-8.7,15.2-13.2,32.4-13.2,51v157.8c0,6.4,2.1,11.7,6.3,15.8
		c4.1,4,9.3,6,15.5,6c6.4,0,11.7-2,15.7-6c4-4,6-9.3,6-15.7v-82.9c6.9,6.7,14.8,12.1,23.5,16.3c12,5.8,25.2,8.7,39.2,8.7
		c17.3,0,33.2-4.4,47.3-13.1c14.1-8.7,25.3-20.8,33.3-36c8-15.2,12.1-32.3,12.1-50.9c0-18.6-4.4-35.8-13-51
		C835.8,112.2,823.7,100,808.4,91.2 M446.8,100.9c0,2.1-0.2,3.6-0.5,4.7c-2.5,9-8.9,14-17.8,14c-1.4,0-3.4-0.3-6-0.8
		c-8.9-1.6-16.3-2.4-21.7-2.4c-15.6,0-28.3,3.6-37.7,10.6c-9.1,6.9-13.6,15.9-13.6,27.5v101.1c0,6.6-1.8,11.9-5.5,15.7
		c-3.7,3.8-9,5.8-15.9,5.8c-6.6,0-11.9-1.8-15.7-5.5c-3.8-3.7-5.8-9-5.8-16V100.9c0-6.6,1.9-11.9,5.7-15.7c3.8-3.8,9.1-5.7,15.7-5.7
		c12.7,0,20.1,6.4,21.3,18.1c5.8-5.2,12.5-9.5,19.9-12.9c10.7-4.8,22.2-7.3,34.2-7.3c12.9,0,23.2,2,30.7,6
		C442.6,87.8,446.8,93.7,446.8,100.9 M599,162.8H483.8c2.8-15.4,9.5-27.9,19.9-37c10.5-9.2,24.3-13.8,41-13.8
		c15.2,0,27.6,4.7,37,13.8C591.2,135,597,147.4,599,162.8 M592.9,90.4C579.4,82.2,563.1,78,544.7,78c-18.6,0-35.6,4.3-50.3,12.8
		c-14.8,8.5-26.5,20.6-34.8,35.9c-8.3,15.2-12.4,32.6-12.4,51.6c0,19.1,4.4,36.5,13.2,51.6c8.8,15.1,21.1,27.1,36.7,35.7
		c15.5,8.5,33.3,12.8,52.9,12.8c11,0,22.7-2.1,34.7-6.1c12-4,22.3-9.4,30.5-15.9c4.7-3.5,7.1-8.2,7.1-13.6c0-5.6-2.6-10.7-7.6-14.9
		c-3.3-3-7.7-4.5-13.1-4.5c-5.3,0-10,1.6-13.9,4.7c-4.4,3.4-10.3,6.3-17.3,8.7c-7,2.4-13.9,3.6-20.3,3.6c-16.5,0-30.6-4.7-41.9-14
		c-10-8.2-16.6-18.9-19.6-31.8H615c5.7,0,10.5-1.8,14.3-5.5c3.8-3.7,5.8-8.3,5.8-13.9c0-18.8-3.6-35.7-10.8-50.3
		C617,110.3,606.4,98.6,592.9,90.4"/>
</g>
</svg>
